<svg xmlns="http://www.w3.org/2000/svg" viewBox="0 0 15.43 15.22"><defs><style>.cls-1{fill:#fff;}</style></defs><g id="Шар_2" data-name="Шар 2"><g id="_1680" data-name="1680"><g id="Footer"><path class="cls-1" d="M3.39,15.22H.09V4.6h3.3ZM1.71,3.3A1.62,1.62,0,0,1,0,1.65,1.64,1.64,0,0,1,1.76,0a1.65,1.65,0,1,1-.05,3.3ZM15.43,15.22H12.14V9.33C12.14,8,11.66,7,10.46,7A1.81,1.81,0,0,0,8.77,8.27a2.32,2.32,0,0,0-.11.83v6.12H5.36V8c0-1.32,0-2.43-.09-3.39H8.14l.15,1.48h.07a3.78,3.78,0,0,1,3.27-1.72c2.18,0,3.8,1.46,3.8,4.58Z"/></g></g></g></svg>