<svg xmlns="http://www.w3.org/2000/svg" viewBox="0 0 128.14 73.04"><defs><style>.cls-1{fill:#fff;}</style></defs><g id="Шар_2" data-name="Шар 2"><g id="_1680" data-name="1680"><g id="Footer"><path class="cls-1" d="M10.46,63.05H4.62a4.48,4.48,0,0,1-3.31-1.33A4.62,4.62,0,0,1,0,58.35,4.28,4.28,0,0,1,1.3,55.1a4.63,4.63,0,0,1,3.32-1.24H9.81v1.6H4.62a3,3,0,0,0-2.17.85,2.94,2.94,0,0,0-.85,2.18,2.83,2.83,0,0,0,.85,2.14,3,3,0,0,0,2.17.82H8.86v-2H4.5V58h6Z"/><path class="cls-1" d="M19.43,63.05H11.51V53.86h1.6v7.59h6.32Z"/><path class="cls-1" d="M32.22,58.35a4.61,4.61,0,0,1-1.3,3.37,4.48,4.48,0,0,1-3.32,1.33H25a4.48,4.48,0,0,1-3.31-1.33,4.58,4.58,0,0,1-1.31-3.37A4.31,4.31,0,0,1,21.7,55.1,4.67,4.67,0,0,1,25,53.86H27.6a4.63,4.63,0,0,1,3.33,1.24A4.31,4.31,0,0,1,32.22,58.35Zm-1.58.14a3,3,0,0,0-.86-2.18,3,3,0,0,0-2.18-.85H25a3,3,0,0,0-2.17.85A2.94,2.94,0,0,0,22,58.49a2.83,2.83,0,0,0,.85,2.14,3,3,0,0,0,2.17.82H27.6a3,3,0,0,0,2.18-.82A2.84,2.84,0,0,0,30.64,58.49Z"/><path class="cls-1" d="M43.85,60.37a2.31,2.31,0,0,1-.29,1.12A3.55,3.55,0,0,1,40.2,63H33.61V53.85H40.2a3.61,3.61,0,0,1,3.29,1.47,2.39,2.39,0,0,1-.61,3.18A2.28,2.28,0,0,1,43.85,60.37Zm-1.54-3.8a1,1,0,0,0-.68-.89,3,3,0,0,0-1.19-.23H35.21v6h5.23a3.06,3.06,0,0,0,1.17-.2c.46-.2.7-.48.7-.85s-.24-.66-.7-.86a3.13,3.13,0,0,0-1.17-.21H36.15v-1.6h4.29a2.81,2.81,0,0,0,1.19-.24A1,1,0,0,0,42.31,56.57Z"/><path class="cls-1" d="M65.6,63.05H57.69V53.86h1.59v7.59H65.6Z"/><path class="cls-1" d="M80.66,63.05H75.47a4.46,4.46,0,0,1-3.31-1.33,4.58,4.58,0,0,1-1.31-3.37,4.31,4.31,0,0,1,1.29-3.25,4.67,4.67,0,0,1,3.33-1.24h5.19v1.6H75.47a3,3,0,0,0-2.17.85,2.94,2.94,0,0,0-.85,2.18,2.83,2.83,0,0,0,.85,2.14,3,3,0,0,0,2.17.82h5.19Z"/><path class="cls-1" d="M93.78,58.35a4.61,4.61,0,0,1-1.3,3.37,4.48,4.48,0,0,1-3.32,1.33H86.59a4.5,4.5,0,0,1-3.32-1.33A4.62,4.62,0,0,1,82,58.35a4.32,4.32,0,0,1,1.3-3.25,4.65,4.65,0,0,1,3.33-1.24h2.57a4.63,4.63,0,0,1,3.33,1.24A4.31,4.31,0,0,1,93.78,58.35Zm-1.59.14a2.94,2.94,0,0,0-.85-2.18,3,3,0,0,0-2.18-.85H86.59a2.93,2.93,0,0,0-3,3,2.84,2.84,0,0,0,.86,2.14,3,3,0,0,0,2.17.82h2.57a3.05,3.05,0,0,0,2.18-.82A2.83,2.83,0,0,0,92.19,58.49Z"/><path class="cls-1" d="M117.25,63.05h-5.17a4.5,4.5,0,0,1-3.32-1.33,4.62,4.62,0,0,1-1.31-3.37,4.28,4.28,0,0,1,1.3-3.25,4.63,4.63,0,0,1,3.33-1.24h5.17v1.6h-5.17a2.93,2.93,0,0,0-3,3,2.84,2.84,0,0,0,.86,2.14,3,3,0,0,0,2.17.82h5.17Z"/><path class="cls-1" d="M39.48,71.32a1.6,1.6,0,0,1-.56,1.27,2,2,0,0,1-1.35.45H33.32v-1h4.25a1.27,1.27,0,0,0,.69-.18.67.67,0,0,0,0-1.17,1.36,1.36,0,0,0-.69-.17H35a1.85,1.85,0,0,1-1.22-.4A1.4,1.4,0,0,1,33.21,69a1.37,1.37,0,0,1,.52-1.13,1.85,1.85,0,0,1,1.22-.4h4.19v1H35a.76.76,0,0,0-.48.15.5.5,0,0,0-.19.42.48.48,0,0,0,.19.41.76.76,0,0,0,.48.15h2.62a2,2,0,0,1,1.35.46A1.64,1.64,0,0,1,39.48,71.32Z"/><path class="cls-1" d="M67.16,73h-4.8V67.48h1v4.59h3.83Z"/><path class="cls-1" d="M80,73H75.22V67.48H80v1H76.19v3.62H80Zm-.25-2.34H76.6v-1h3.18Z"/><path class="cls-1" d="M94.4,71.32a1.6,1.6,0,0,1-.56,1.27,2,2,0,0,1-1.35.45H88.25v-1h4.24a1.33,1.33,0,0,0,.7-.18.67.67,0,0,0,.33-.59.64.64,0,0,0-.34-.58,1.36,1.36,0,0,0-.69-.17H89.87a1.85,1.85,0,0,1-1.22-.4A1.43,1.43,0,0,1,88.13,69a1.4,1.4,0,0,1,.52-1.13,1.85,1.85,0,0,1,1.22-.4h4.2v1h-4.2a.73.73,0,0,0-.47.15.5.5,0,0,0-.2.42.48.48,0,0,0,.2.41.73.73,0,0,0,.47.15h2.62a2,2,0,0,1,1.35.46A1.64,1.64,0,0,1,94.4,71.32Z"/><rect class="cls-1" y="70.26" width="26.32" height="0.47"/><rect class="cls-1" x="101.27" y="70.26" width="26.32" height="0.47"/><path class="cls-1" d="M53,55.73h0l-.31-.5-.28-.49a1.88,1.88,0,0,0-.16-.23l-.46-.74H50.57l-.47.76a1.28,1.28,0,0,0-.14.21l-.6,1h0L45,63H47l4.15-6.8,1.59,2.65,1,1.59L55.27,63l2,0Z"/><path class="cls-1" d="M102.51,55.73h0l-.31-.5-.28-.49a1.88,1.88,0,0,0-.16-.23l-.46-.74H100l-.47.76c0,.07-.1.14-.14.21l-.6,1h0L94.44,63H96.5l4.14-6.8,1.6,2.65,1,1.59L104.74,63l2.05,0Z"/><path class="cls-1" d="M52.2,68.64h0l-.19-.3-.17-.3-.09-.14-.28-.44h-.77l-.28.46a.83.83,0,0,0-.08.12l-.36.6h0L47.35,73h1.23l2.5-4.1,1,1.6.57.95L53.54,73h1.24Z"/><polygon class="cls-1" points="79.18 18.26 64.17 18.26 64.17 24.35 79.18 24.35 79.18 27.3 79.18 36.41 79.18 39.36 85.27 39.36 85.27 24.35 85.27 18.26 79.18 18.26"/><path class="cls-1" d="M64.18,36.52A15.22,15.22,0,1,1,73.1,9V2a21.31,21.31,0,1,0,0,38.69v-7A15.14,15.14,0,0,1,64.18,36.52Z"/><path class="cls-1" d="M120.42,63.05h-1.6V53.86h1.6Zm7.72,0h-1.6V59.23h-5.39v-1.6h5.39V53.86h1.6Z"/></g></g></g></svg>