<svg xmlns="http://www.w3.org/2000/svg" viewBox="0 0 104.55 59.59"><defs><style>.cls-1{fill:#7ab931;}.cls-2{fill:#005ac3;}</style></defs><g id="Шар_2" data-name="Шар 2"><g id="_1680" data-name="1680"><g id="Menu_Navigation" data-name="Menu/Navigation"><path d="M8.53,51.44H3.77a3.6,3.6,0,0,1-2.7-1.09A3.76,3.76,0,0,1,0,47.61,3.47,3.47,0,0,1,1.06,45a3.73,3.73,0,0,1,2.71-1H8v1.3H3.77a2.36,2.36,0,0,0-2.46,2.47A2.3,2.3,0,0,0,2,49.46a2.45,2.45,0,0,0,1.77.67H7.23V48.5H3.67V47.3H8.53Z"/><path d="M15.85,51.44H9.39V44h1.3v6.18h5.16Z"/><path d="M26.29,47.61a3.75,3.75,0,0,1-1.06,2.74,3.62,3.62,0,0,1-2.71,1.09h-2.1a3.6,3.6,0,0,1-2.7-1.09,3.76,3.76,0,0,1-1.07-2.74A3.47,3.47,0,0,1,17.71,45a3.73,3.73,0,0,1,2.71-1h2.1a3.74,3.74,0,0,1,2.72,1A3.49,3.49,0,0,1,26.29,47.61ZM25,47.72a2.38,2.38,0,0,0-2.48-2.47h-2.1A2.38,2.38,0,0,0,18,47.72a2.3,2.3,0,0,0,.7,1.74,2.45,2.45,0,0,0,1.77.67h2.1a2.46,2.46,0,0,0,1.78-.67A2.3,2.3,0,0,0,25,47.72Z"/><path d="M35.78,49.25a1.86,1.86,0,0,1-.24.92,2.9,2.9,0,0,1-2.75,1.26H27.42V43.94h5.37a2.94,2.94,0,0,1,2.69,1.19,1.93,1.93,0,0,1,.3,1A2,2,0,0,1,35,47.73,1.88,1.88,0,0,1,35.78,49.25Zm-1.26-3.1a.8.8,0,0,0-.55-.72,2.35,2.35,0,0,0-1-.19H28.72v4.88H33A2.61,2.61,0,0,0,34,50q.57-.24.57-.69a.78.78,0,0,0-.57-.71,2.69,2.69,0,0,0-1-.17h-3.5V47.08H33a2.35,2.35,0,0,0,1-.19A.82.82,0,0,0,34.52,46.15Z"/><path d="M53.52,51.44H47.06V44h1.31v6.18h5.15Z"/><path d="M65.81,51.44H61.57a3.6,3.6,0,0,1-2.7-1.09,3.76,3.76,0,0,1-1.07-2.74A3.47,3.47,0,0,1,58.86,45a3.73,3.73,0,0,1,2.71-1h4.24v1.3H61.57a2.36,2.36,0,0,0-2.46,2.47,2.3,2.3,0,0,0,.69,1.74,2.45,2.45,0,0,0,1.77.67h4.24Z"/><path d="M76.51,47.61a3.75,3.75,0,0,1-1.06,2.74,3.61,3.61,0,0,1-2.71,1.09h-2.1a3.6,3.6,0,0,1-2.7-1.09,3.76,3.76,0,0,1-1.07-2.74A3.47,3.47,0,0,1,67.93,45a3.75,3.75,0,0,1,2.71-1h2.1a3.74,3.74,0,0,1,2.72,1A3.49,3.49,0,0,1,76.51,47.61Zm-1.29.11a2.39,2.39,0,0,0-.7-1.78,2.42,2.42,0,0,0-1.78-.69h-2.1a2.36,2.36,0,0,0-2.46,2.47,2.3,2.3,0,0,0,.69,1.74,2.45,2.45,0,0,0,1.77.67h2.1a2.45,2.45,0,0,0,1.78-.67A2.27,2.27,0,0,0,75.22,47.72Z"/><path d="M95.66,51.44H91.44a3.6,3.6,0,0,1-2.7-1.09,3.72,3.72,0,0,1-1.07-2.74,3.49,3.49,0,0,1,1-2.65,3.77,3.77,0,0,1,2.72-1h4.22v1.3H91.44A2.38,2.38,0,0,0,89,47.72a2.27,2.27,0,0,0,.7,1.74,2.42,2.42,0,0,0,1.77.67h4.22Z"/><path d="M32.21,58.19a1.29,1.29,0,0,1-.46,1,1.67,1.67,0,0,1-1.1.36H27.19V58.8h3.46a1.15,1.15,0,0,0,.57-.14.57.57,0,0,0,.27-.49.52.52,0,0,0-.28-.47,1.08,1.08,0,0,0-.56-.14H28.51a1.52,1.52,0,0,1-1-.33,1.23,1.23,0,0,1,0-1.85,1.52,1.52,0,0,1,1-.33h3.43v.79H28.51a.6.6,0,0,0-.38.13.44.44,0,0,0,0,.68.6.6,0,0,0,.38.12h2.14a1.59,1.59,0,0,1,1.1.38A1.29,1.29,0,0,1,32.21,58.19Z"/><path d="M54.8,59.59H50.88V55.05h.79V58.8H54.8Z"/><path d="M65.3,59.59H61.37V55.05H65.3v.79H62.16v3H65.3Zm-.21-1.9H62.5v-.8h2.59Z"/><path d="M77,58.19a1.32,1.32,0,0,1-.46,1,1.67,1.67,0,0,1-1.1.36H72V58.8h3.46a1.15,1.15,0,0,0,.57-.14.57.57,0,0,0,.27-.49A.52.52,0,0,0,76,57.7a1.08,1.08,0,0,0-.56-.14H73.32a1.52,1.52,0,0,1-1-.33,1.21,1.21,0,0,1,0-1.85,1.52,1.52,0,0,1,1-.33h3.43v.79H73.32a.6.6,0,0,0-.38.13.44.44,0,0,0,0,.68.6.6,0,0,0,.38.12h2.14a1.59,1.59,0,0,1,1.1.38A1.32,1.32,0,0,1,77,58.19Z"/><rect y="57.32" width="21.48" height="0.38"/><rect x="82.62" y="57.32" width="21.48" height="0.38"/><path d="M43.27,45.47h0L43,45.06l-.23-.4c0-.07-.09-.13-.13-.19l-.37-.6h-1l-.39.62a1.63,1.63,0,0,0-.11.17l-.49.81h0l-3.58,6h1.68l3.37-5.55L43.05,48l.78,1.29,1.26,2.1h1.68Z"/><path d="M83.63,45.47h0l-.26-.41-.23-.4a1.27,1.27,0,0,0-.13-.19l-.37-.6h-1l-.39.62a1.63,1.63,0,0,0-.11.17l-.49.81h0l-3.58,6h1.68l3.38-5.55L83.41,48l.78,1.29,1.26,2.1h1.68Z"/><path d="M42.59,56h0l-.16-.25-.14-.24-.07-.11L42,55h-.62l-.23.37-.07.1-.3.49h0l-2.15,3.59h1l2-3.34.79,1.3.46.78.76,1.26h1Z"/><polygon class="cls-1" points="64.6 14.9 52.36 14.9 52.36 19.86 64.6 19.86 64.6 22.27 64.6 29.7 64.6 32.11 69.57 32.11 69.57 19.86 69.57 14.9 64.6 14.9"/><path class="cls-2" d="M52.36,29.8A12.42,12.42,0,1,1,59.64,7.33V1.6a17.38,17.38,0,1,0,0,31.56V27.43A12.33,12.33,0,0,1,52.36,29.8Z"/><path d="M98.25,51.44H97V44h1.3Zm6.3,0h-1.31V48.32h-4.4V47h4.4V44h1.31Z"/></g></g></g></svg>