<svg xmlns="http://www.w3.org/2000/svg" viewBox="0 0 19.13 18.87"><defs><style>.cls-1{fill:#0d66a3;}</style></defs><g id="Шар_2" data-name="Шар 2"><g id="_1680" data-name="1680"><g id="Section_1" data-name="Section 1"><path class="cls-1" d="M4.2,18.87H.11V5.71H4.2ZM2.13,4.09A2,2,0,0,1,0,2.05,2,2,0,0,1,2.18,0,2,2,0,0,1,4.33,2.05,2,2,0,0,1,2.13,4.09Zm17,14.78H15v-7.3c0-1.69-.59-2.85-2.07-2.85a2.25,2.25,0,0,0-2.1,1.53,2.93,2.93,0,0,0-.13,1v7.59H6.65v-9c0-1.64-.06-3-.11-4.19h3.55l.19,1.83h.08a4.71,4.71,0,0,1,4.06-2.13c2.7,0,4.71,1.8,4.71,5.68Z"/></g></g></g></svg>