<svg xmlns="http://www.w3.org/2000/svg" viewBox="0 0 16.54 21.26"><defs><style>.cls-1{fill:#ba0a1e;}</style></defs><g id="Шар_2" data-name="Шар 2"><g id="_1680" data-name="1680"><g id="Section_1" data-name="Section 1"><path class="cls-1" d="M9.65,15.42c-1.29-.1-1.84-.74-2.85-1.36-.56,2.93-1.24,5.73-3.26,7.2-.62-4.42.92-7.75,1.63-11.27C4,7.94,5.32,3.81,7.89,4.83c3.16,1.25-2.74,7.62,1.22,8.42,4.13.83,5.82-7.18,3.26-9.78C8.66-.29,1.58,3.38,2.45,8.76,2.67,10.08,4,10.48,3,12.3.62,11.77-.08,9.9,0,7.41.15,3.32,3.67.47,7.21.07c4.46-.5,8.65,1.64,9.23,5.84C17.09,10.65,14.43,15.79,9.65,15.42Z"/></g></g></g></svg>