<svg xmlns="http://www.w3.org/2000/svg" viewBox="0 0 19.39 15.75"><defs><style>.cls-1{fill:#1397e5;}</style></defs><g id="Шар_2" data-name="Шар 2"><g id="_1680" data-name="1680"><g id="Section_1" data-name="Section 1"><path class="cls-1" d="M17.4,3.92c0,.17,0,.34,0,.52A11.23,11.23,0,0,1,6.1,15.75,11.24,11.24,0,0,1,0,14,7.46,7.46,0,0,0,1,14a8,8,0,0,0,4.94-1.71A4,4,0,0,1,2.17,9.56a3.74,3.74,0,0,0,.75.07A4,4,0,0,0,4,9.49,4,4,0,0,1,.78,5.59v0a3.91,3.91,0,0,0,1.8.5A4,4,0,0,1,1.35.73a11.28,11.28,0,0,0,8.2,4.15,3.82,3.82,0,0,1-.1-.9,4,4,0,0,1,6.88-2.73,7.7,7.7,0,0,0,2.52-1,4,4,0,0,1-1.75,2.2,7.62,7.62,0,0,0,2.29-.63A8,8,0,0,1,17.4,3.92Z"/></g></g></g></svg>